<svg width="20" height="13" viewBox="0 0 20 13" fill="none" xmlns="http://www.w3.org/2000/svg">
<path d="M18.3333 1.83317H12.5V0.166504H18.3333V1.83317ZM19.7717 10.1665C19.4033 11.2473 18.0808 12.6665 15.5208 12.6665C12.9592 12.6665 10.8842 11.2257 10.8842 7.93734C10.8842 4.679 12.8217 3.004 15.4392 3.004C18.0075 3.004 19.5758 4.489 19.9183 6.69234C19.9833 7.114 20.0092 7.68234 19.9975 8.47567H13.3083C13.4167 11.1515 16.2108 11.2357 17.1317 10.1665H19.7717ZM13.3667 6.83317H17.5042C17.4167 5.544 16.5575 4.984 15.44 4.984C14.2183 4.984 13.5425 5.624 13.3667 6.83317ZM5.38833 12.6565H0V0.184004H5.79417C10.3575 0.251504 10.4442 4.72067 8.06083 5.939C10.945 6.989 11.0417 12.6565 5.38833 12.6565ZM2.5 5.1665H5.48667C7.57667 5.1665 7.90833 2.6665 5.22667 2.6665H2.5V5.1665ZM5.32583 7.6665H2.5V10.1798H5.28417C7.83 10.1798 7.67417 7.6665 5.32583 7.6665Z" fill="white"/>
</svg>
