<svg width="18" height="18" viewBox="0 0 18 18" fill="none" xmlns="http://www.w3.org/2000/svg">
<path fill-rule="evenodd" clip-rule="evenodd" d="M6.85752 6.474H9.95252V8.01567C10.3984 7.129 11.5417 6.33234 13.2592 6.33234C16.5517 6.33234 17.3334 8.09734 17.3334 11.3357V17.3332H14V12.0732C14 10.229 13.5542 9.189 12.4192 9.189C10.845 9.189 10.1909 10.3098 10.1909 12.0723V17.3332H6.85752V6.474ZM1.14169 17.1915H4.47502V6.33234H1.14169V17.1915ZM4.95252 2.7915C4.95264 3.0709 4.89723 3.34753 4.78951 3.60533C4.68179 3.86312 4.5239 4.09693 4.32502 4.29317C3.92202 4.69369 3.37653 4.91788 2.80835 4.9165C2.24118 4.91612 1.69695 4.6925 1.29335 4.294C1.0952 4.0971 0.937842 3.86302 0.830307 3.6052C0.722772 3.34737 0.66717 3.07086 0.666687 2.7915C0.666687 2.22734 0.891687 1.68734 1.29419 1.289C1.69742 0.889969 2.24189 0.666255 2.80919 0.666504C3.37752 0.666504 3.92252 0.890671 4.32502 1.289C4.72669 1.68734 4.95252 2.22734 4.95252 2.7915Z" fill="white"/>
</svg>
